# xmcd
#
# Track frame offsets:
#	150
#	14167
#	29927
#	40850
#	58225
#	68372
#	83062
#	100142
#	114190
#
# Disc length: 1736 seconds
#
# Revision: 2
# Processed by: cddbd v1.4PL0 Copyright (c) Steve Scherf et al.
# Submitted via: dBpowerAMP V4.0
#
DISCID=7306c609
DTITLE=Alan Jackson - Super Hits
DYEAR=1999
DGENRE=Country
TTITLE0=Chasin' That Neon Rainbow
TTITLE1=Who Says You Can't Have It All
TTITLE2=She's Got The Rhythm (I Got The Blues)
TTITLE3=I Don't Even Know Your Name
TTITLE4=Blue Blooded Woman
TTITLE5=Working Class Hero
TTITLE6=That's All I Need To Know
TTITLE7=You Can't Give Up On Love
TTITLE8=Must've Had A Ball
EXTD=
EXTT0=
EXTT1=
EXTT2=
EXTT3=
EXTT4=
EXTT5=
EXTT6=
EXTT7=
EXTT8=
PLAYORDER=
